<?xml version="1.0" encoding="utf-8"?>
<!-- Generator: Adobe Illustrator 27.0.0, SVG Export Plug-In . SVG Version: 6.00 Build 0)  -->
<svg version="1.1" id="Layer_1" xmlns="http://www.w3.org/2000/svg" xmlns:xlink="http://www.w3.org/1999/xlink" x="0px" y="0px"
	 viewBox="0 0 1024 1024" style="enable-background:new 0 0 1024 1024;" xml:space="preserve">
<style type="text/css">
	.st0{fill:#FFFFFF;stroke:#FFFFFF;stroke-width:16;stroke-miterlimit:10;}
	.st1{fill:url(#SVGID_1_);stroke:#FFFFFF;stroke-width:16;stroke-miterlimit:10;}
</style>
<circle class="st0" cx="510.89" cy="513.57" r="500.35"/>
<g>
	<linearGradient id="SVGID_1_" gradientUnits="userSpaceOnUse" x1="578.6096" y1="68.0002" x2="578.6096" y2="955.9998">
		<stop  offset="0.1965" style="stop-color:#8300BF"/>
		<stop  offset="0.3071" style="stop-color:#8005C1"/>
		<stop  offset="0.4302" style="stop-color:#7512C6"/>
		<stop  offset="0.5592" style="stop-color:#6528CE"/>
		<stop  offset="0.6923" style="stop-color:#4D47D9"/>
		<stop  offset="0.8286" style="stop-color:#2F6FE8"/>
		<stop  offset="0.9657" style="stop-color:#0AA0FA"/>
		<stop  offset="1" style="stop-color:#00ADFF"/>
	</linearGradient>
	<path class="st1" d="M114.61,944c0-9.33,2.5-18,7.5-26s12.83-16.66,23.5-26c10.66-10.66,18.33-19,23-25c4.66-6,8.83-14.66,12.5-26
		c3.66-11.33,8.16-28.66,13.5-52l91-438h-6c-3.34,0-10.34-0.66-21-2c-13.34-2.66-27.34-4-42-4c-19.34,0-35.5,2.67-48.5,8
		c-13,5.34-24.84,15-35.5,29c-3.34,4.67-6.67,8.5-10,11.5c-3.34,3-6.34,4.5-9,4.5c-6,0-9-3.33-9-10c0-6.66,0.66-12,2-16
		c6.66-34,23-60.83,49-80.5c26-19.66,58.66-29.5,98-29.5c8,0,20.66,0.67,38,2c15.33,2,31.33,3,48,3c6,0,21-1,45-3
		c12-1.33,20.33-2,25-2c-1.34,17.34-2,32.34-2,45c0,24.67,3,53.17,9,85.5c6,32.34,15.66,77.5,29,135.5l31,133
		c4.66,13.34,7.66,25,9,35c68.66-124,114.16-207.5,136.5-250.5c22.33-43,41.16-81.16,56.5-114.5c8-16,14.33-29.33,19-40
		c26.66-54.66,50.83-96,72.5-124c21.66-28,47.5-49.33,77.5-64c20-10,41.33-16.66,64-20c22.66-3.33,49-5,79-5
		c15.33,0,26.66-1.33,34-4c4.66-1.33,8.66-2.66,12-4c3.33-1.33,6-2,8-2c5.33,0,8,3.67,8,11c0,14-8.34,27.67-25,41
		c-16.67,13.34-34.34,20-53,20c-22,0.67-40,2-54,4s-27.67,6-41,12c-25.34,12-44.67,33.67-58,65c-13.34,31.34-24.34,78-33,140
		c-4.67,28.67-8.84,60.67-12.5,96c-3.67,35.34-7.17,72-10.5,110c-8.67,97.34-17,178.34-25,243c-0.67,12.67-3.17,24.17-7.5,34.5
		c-4.34,10.34-9.5,18.17-15.5,23.5v1c13.33,6.67,26.66,10,40,10c9.33,0,18.83-1.83,28.5-5.5c9.66-3.66,15.83-5.5,18.5-5.5
		c2.66,0,4.5,0.67,5.5,2c1,1.34,1.5,4,1.5,8c0,8.67-4,17.34-12,26c-26.67,34.67-52.67,52-78,52c-9.34,0-22.34-2.33-39-7
		c-2-0.66-8.34-2.33-19-5c-10.67-2.66-21.34-4-32-4c-14,0-27.17,2.67-39.5,8c-12.34,5.34-19.84,8-22.5,8c-4.67,0-7-4-7-12
		c0-18,10.66-35.33,32-52l18-14c8-6,13.5-10.83,16.5-14.5c3-3.66,4.83-9.5,5.5-17.5l2-21c10.66-116,18-189.16,22-219.5
		c4-30.33,8.33-66.5,13-108.5h-1c-28,44.67-57,96.34-87,155c-30,58.67-54.34,112-73,160c-14.67,24.67-31.84,48.67-51.5,72
		c-19.67,23.34-33.17,35-40.5,35c-2,0-3.5-1.16-4.5-3.5c-1-2.33-1.5-5.5-1.5-9.5c-5.34-48-9.5-83.16-12.5-105.5
		c-3-22.33-9.5-56.16-19.5-101.5c-4.67-20-11.5-49.33-20.5-88c-9-38.66-15.5-68.66-19.5-90l-1-1l-61,303c-0.67,2-2.84,9.17-6.5,21.5
		c-3.67,12.34-8.17,20.84-13.5,25.5v2c12.66,4.67,24.66,7,36,7c10,0,18.83-1.83,26.5-5.5c7.66-3.66,12.83-5.5,15.5-5.5
		c5.33,0,8,3.34,8,10c0,6-4,14.67-12,26c-14.67,20-27.34,33.67-38,41c-10.67,7.34-22.67,11-36,11c-9.34,0-20.67-2.66-34-8
		c-16-5.33-29.34-8-40-8c-15.34,0-29.34,2.67-42,8c-12.67,5.34-20,8-22,8C116.61,956,114.61,952,114.61,944z"/>
</g>
</svg>
